<mxfile host="app.diagrams.net" modified="2020-11-27T15:55:32.974Z" agent="5.0 (Macintosh; Intel Mac OS X 10_15_7) AppleWebKit/537.36 (KHTML, like Gecko) Chrome/86.0.4240.193 Safari/537.36" etag="DpIA3C_h5oJxa9irKDTu" version="13.10.2" type="github">
  <diagram id="KzExXDa9j_CslRWxPjg3" name="Page-1">
    <mxGraphModel dx="2831" dy="1345" grid="1" gridSize="10" guides="1" tooltips="1" connect="1" arrows="1" fold="1" page="0" pageScale="1" pageWidth="827" pageHeight="1169" math="0" shadow="0">
      <root>
        <mxCell id="0" />
        <mxCell id="1" parent="0" />
        <mxCell id="RpFdNuH686E7Uf_D3KnB-24" style="edgeStyle=none;rounded=0;orthogonalLoop=1;jettySize=auto;html=1;" edge="1" parent="1" target="IZYluF1lrNxQetc7Ovq5-1">
          <mxGeometry relative="1" as="geometry">
            <mxPoint x="39" y="297" as="sourcePoint" />
          </mxGeometry>
        </mxCell>
        <mxCell id="RpFdNuH686E7Uf_D3KnB-25" value="10. Zeig Rezept mit N채hrstoffen" style="edgeLabel;html=1;align=center;verticalAlign=middle;resizable=0;points=[];" vertex="1" connectable="0" parent="RpFdNuH686E7Uf_D3KnB-24">
          <mxGeometry x="-0.1107" relative="1" as="geometry">
            <mxPoint y="8.33" as="offset" />
          </mxGeometry>
        </mxCell>
        <mxCell id="IZYluF1lrNxQetc7Ovq5-25" value="" style="rounded=0;whiteSpace=wrap;html=1;" parent="1" vertex="1">
          <mxGeometry x="40" y="30" width="670" height="360" as="geometry" />
        </mxCell>
        <mxCell id="IZYluF1lrNxQetc7Ovq5-7" value="" style="shape=datastore;whiteSpace=wrap;html=1;" parent="1" vertex="1">
          <mxGeometry x="90" y="55" width="140" height="230" as="geometry" />
        </mxCell>
        <mxCell id="IZYluF1lrNxQetc7Ovq5-1" value="Nutzer" style="shape=umlActor;verticalLabelPosition=bottom;verticalAlign=top;html=1;outlineConnect=0;fontStyle=1" parent="1" vertex="1">
          <mxGeometry x="-350" y="270" width="30" height="60" as="geometry" />
        </mxCell>
        <mxCell id="IZYluF1lrNxQetc7Ovq5-12" value="Rezeptdatenbank" style="text;html=1;strokeColor=none;fillColor=none;align=center;verticalAlign=middle;whiteSpace=wrap;rounded=0;fontStyle=1" parent="1" vertex="1">
          <mxGeometry x="107.5" y="70" width="105" height="20" as="geometry" />
        </mxCell>
        <mxCell id="IZYluF1lrNxQetc7Ovq5-38" value="&lt;b&gt;&lt;font style=&quot;font-size: 29px&quot;&gt;Interaktives System&lt;/font&gt;&lt;/b&gt;" style="text;html=1;strokeColor=none;fillColor=none;align=center;verticalAlign=middle;whiteSpace=wrap;rounded=0;" parent="1" vertex="1">
          <mxGeometry x="40" width="280" height="20" as="geometry" />
        </mxCell>
        <mxCell id="RpFdNuH686E7Uf_D3KnB-7" style="edgeStyle=none;rounded=0;orthogonalLoop=1;jettySize=auto;html=1;exitX=1;exitY=0.5;exitDx=0;exitDy=0;entryX=0;entryY=0;entryDx=0;entryDy=15;entryPerimeter=0;" edge="1" parent="1" source="RpFdNuH686E7Uf_D3KnB-1" target="RpFdNuH686E7Uf_D3KnB-6">
          <mxGeometry relative="1" as="geometry" />
        </mxCell>
        <mxCell id="RpFdNuH686E7Uf_D3KnB-8" value="2. Trigger Event &lt;br&gt;(Alle Zutaten mitgegeben)" style="edgeLabel;html=1;align=center;verticalAlign=middle;resizable=0;points=[];" vertex="1" connectable="0" parent="RpFdNuH686E7Uf_D3KnB-7">
          <mxGeometry x="0.0951" relative="1" as="geometry">
            <mxPoint x="-3.92" y="-23.98" as="offset" />
          </mxGeometry>
        </mxCell>
        <mxCell id="RpFdNuH686E7Uf_D3KnB-22" style="edgeStyle=none;rounded=0;orthogonalLoop=1;jettySize=auto;html=1;exitX=0.041;exitY=0.92;exitDx=0;exitDy=0;entryX=-0.001;entryY=0.744;entryDx=0;entryDy=0;entryPerimeter=0;exitPerimeter=0;" edge="1" parent="1" source="IZYluF1lrNxQetc7Ovq5-7" target="IZYluF1lrNxQetc7Ovq5-25">
          <mxGeometry relative="1" as="geometry" />
        </mxCell>
        <mxCell id="RpFdNuH686E7Uf_D3KnB-23" value="9. gib Rezept" style="edgeLabel;html=1;align=center;verticalAlign=middle;resizable=0;points=[];" vertex="1" connectable="0" parent="RpFdNuH686E7Uf_D3KnB-22">
          <mxGeometry x="0.3186" relative="1" as="geometry">
            <mxPoint x="49.17" y="-2.3200000000000003" as="offset" />
          </mxGeometry>
        </mxCell>
        <mxCell id="RpFdNuH686E7Uf_D3KnB-1" value="Rezept" style="ellipse;shape=umlEntity;whiteSpace=wrap;html=1;" vertex="1" parent="1">
          <mxGeometry x="120" y="150" width="80" height="80" as="geometry" />
        </mxCell>
        <mxCell id="RpFdNuH686E7Uf_D3KnB-2" value="" style="endArrow=classic;html=1;entryX=0;entryY=0.5;entryDx=0;entryDy=0;" edge="1" parent="1" source="IZYluF1lrNxQetc7Ovq5-1" target="RpFdNuH686E7Uf_D3KnB-1">
          <mxGeometry width="50" height="50" relative="1" as="geometry">
            <mxPoint x="-260" y="370" as="sourcePoint" />
            <mxPoint x="-210" y="320" as="targetPoint" />
          </mxGeometry>
        </mxCell>
        <mxCell id="RpFdNuH686E7Uf_D3KnB-3" value="1. Nutzer erstellt Rezept" style="edgeLabel;html=1;align=center;verticalAlign=middle;resizable=0;points=[];" vertex="1" connectable="0" parent="RpFdNuH686E7Uf_D3KnB-2">
          <mxGeometry x="-0.2212" y="1" relative="1" as="geometry">
            <mxPoint as="offset" />
          </mxGeometry>
        </mxCell>
        <mxCell id="RpFdNuH686E7Uf_D3KnB-11" style="edgeStyle=none;rounded=0;orthogonalLoop=1;jettySize=auto;html=1;exitX=0.16;exitY=0.55;exitDx=0;exitDy=0;exitPerimeter=0;entryX=1;entryY=0.5;entryDx=0;entryDy=0;" edge="1" parent="1" source="RpFdNuH686E7Uf_D3KnB-5" target="RpFdNuH686E7Uf_D3KnB-6">
          <mxGeometry relative="1" as="geometry" />
        </mxCell>
        <mxCell id="RpFdNuH686E7Uf_D3KnB-12" value="4. Gebe N채hrstoffe/ Else hint for no value" style="edgeLabel;html=1;align=center;verticalAlign=middle;resizable=0;points=[];" vertex="1" connectable="0" parent="RpFdNuH686E7Uf_D3KnB-11">
          <mxGeometry x="0.3775" relative="1" as="geometry">
            <mxPoint x="51.58" y="13.68" as="offset" />
          </mxGeometry>
        </mxCell>
        <mxCell id="RpFdNuH686E7Uf_D3KnB-5" value="N채hrstoffe API" style="ellipse;shape=cloud;whiteSpace=wrap;html=1;fontStyle=1" vertex="1" parent="1">
          <mxGeometry x="800" y="55" width="240" height="135" as="geometry" />
        </mxCell>
        <mxCell id="RpFdNuH686E7Uf_D3KnB-9" style="edgeStyle=none;rounded=0;orthogonalLoop=1;jettySize=auto;html=1;exitX=1;exitY=0.25;exitDx=0;exitDy=0;entryX=0.07;entryY=0.4;entryDx=0;entryDy=0;entryPerimeter=0;" edge="1" parent="1" source="RpFdNuH686E7Uf_D3KnB-6" target="RpFdNuH686E7Uf_D3KnB-5">
          <mxGeometry relative="1" as="geometry" />
        </mxCell>
        <mxCell id="RpFdNuH686E7Uf_D3KnB-10" value="3. Gebe Zutat mit und machen Anfrage" style="edgeLabel;html=1;align=center;verticalAlign=middle;resizable=0;points=[];" vertex="1" connectable="0" parent="RpFdNuH686E7Uf_D3KnB-9">
          <mxGeometry x="-0.1928" relative="1" as="geometry">
            <mxPoint x="18.28" y="-11.09" as="offset" />
          </mxGeometry>
        </mxCell>
        <mxCell id="RpFdNuH686E7Uf_D3KnB-15" style="edgeStyle=none;rounded=0;orthogonalLoop=1;jettySize=auto;html=1;exitX=0;exitY=0;exitDx=0;exitDy=35;exitPerimeter=0;entryX=0.998;entryY=0.579;entryDx=0;entryDy=0;entryPerimeter=0;" edge="1" parent="1" source="RpFdNuH686E7Uf_D3KnB-6" target="RpFdNuH686E7Uf_D3KnB-1">
          <mxGeometry relative="1" as="geometry" />
        </mxCell>
        <mxCell id="RpFdNuH686E7Uf_D3KnB-16" value="6. Speicher Werte" style="edgeLabel;html=1;align=center;verticalAlign=middle;resizable=0;points=[];" vertex="1" connectable="0" parent="RpFdNuH686E7Uf_D3KnB-15">
          <mxGeometry x="-0.122" y="1" relative="1" as="geometry">
            <mxPoint x="23.05" y="17.17" as="offset" />
          </mxGeometry>
        </mxCell>
        <mxCell id="RpFdNuH686E7Uf_D3KnB-6" value="N채hrstoffe&#xa;Generierer" style="shape=module;align=left;spacingLeft=20;align=center;verticalAlign=top;fontStyle=1" vertex="1" parent="1">
          <mxGeometry x="390" y="100" width="100" height="50" as="geometry" />
        </mxCell>
        <mxCell id="RpFdNuH686E7Uf_D3KnB-13" value="" style="curved=1;endArrow=classic;html=1;entryX=1;entryY=0.75;entryDx=0;entryDy=0;exitX=0.75;exitY=1;exitDx=0;exitDy=0;" edge="1" parent="1" source="RpFdNuH686E7Uf_D3KnB-6" target="RpFdNuH686E7Uf_D3KnB-6">
          <mxGeometry width="50" height="50" relative="1" as="geometry">
            <mxPoint x="430" y="220" as="sourcePoint" />
            <mxPoint x="480" y="170" as="targetPoint" />
            <Array as="points">
              <mxPoint x="465" y="180" />
              <mxPoint x="520" y="170" />
              <mxPoint x="520" y="138" />
            </Array>
          </mxGeometry>
        </mxCell>
        <mxCell id="RpFdNuH686E7Uf_D3KnB-14" value="5. Repeat until done and calc sum" style="edgeLabel;html=1;align=center;verticalAlign=middle;resizable=0;points=[];" vertex="1" connectable="0" parent="RpFdNuH686E7Uf_D3KnB-13">
          <mxGeometry x="-0.1013" y="2" relative="1" as="geometry">
            <mxPoint x="99.73" y="-1.56" as="offset" />
          </mxGeometry>
        </mxCell>
        <mxCell id="RpFdNuH686E7Uf_D3KnB-17" value="" style="endArrow=classic;html=1;entryX=0;entryY=0.614;entryDx=0;entryDy=0;entryPerimeter=0;" edge="1" parent="1" source="IZYluF1lrNxQetc7Ovq5-1" target="IZYluF1lrNxQetc7Ovq5-25">
          <mxGeometry width="50" height="50" relative="1" as="geometry">
            <mxPoint x="-290" y="390" as="sourcePoint" />
            <mxPoint x="-240" y="340" as="targetPoint" />
          </mxGeometry>
        </mxCell>
        <mxCell id="RpFdNuH686E7Uf_D3KnB-18" value="7. Frage Rezept ab" style="edgeLabel;html=1;align=center;verticalAlign=middle;resizable=0;points=[];" vertex="1" connectable="0" parent="RpFdNuH686E7Uf_D3KnB-17">
          <mxGeometry x="0.0516" relative="1" as="geometry">
            <mxPoint x="40.57" y="6.690000000000001" as="offset" />
          </mxGeometry>
        </mxCell>
        <mxCell id="RpFdNuH686E7Uf_D3KnB-19" style="edgeStyle=none;rounded=0;orthogonalLoop=1;jettySize=auto;html=1;exitX=-0.001;exitY=0.615;exitDx=0;exitDy=0;exitPerimeter=0;" edge="1" parent="1" source="IZYluF1lrNxQetc7Ovq5-25" target="IZYluF1lrNxQetc7Ovq5-7">
          <mxGeometry relative="1" as="geometry" />
        </mxCell>
        <mxCell id="RpFdNuH686E7Uf_D3KnB-21" value="8. get Rezept" style="edgeLabel;html=1;align=center;verticalAlign=middle;resizable=0;points=[];" vertex="1" connectable="0" parent="RpFdNuH686E7Uf_D3KnB-19">
          <mxGeometry x="-0.4636" y="1" relative="1" as="geometry">
            <mxPoint x="25.92" y="-1.3100000000000023" as="offset" />
          </mxGeometry>
        </mxCell>
      </root>
    </mxGraphModel>
  </diagram>
</mxfile>
